<?xml version="1.0" standalone="no"?><!DOCTYPE svg PUBLIC "-//W3C//DTD SVG 1.1//EN" "http://www.w3.org/Graphics/SVG/1.1/DTD/svg11.dtd"><svg t="1691566905628" class="icon" viewBox="0 0 1024 1024" version="1.1" xmlns="http://www.w3.org/2000/svg" p-id="2522" width="32" height="32" xmlns:xlink="http://www.w3.org/1999/xlink"><path d="M593.12469333 881.16337778a29.75061333 29.75061333 0 0 1-18.64135111-6.56497778l-215.09688889-173.09127111H183.77159111a29.72672 29.72672 0 0 1-29.72785778-29.72785778V352.22186667a29.72672 29.72672 0 0 1 29.72785778-29.72785778h175.61258667l215.09802667-173.07875556a29.72672 29.72672 0 0 1 48.35669333 23.15605334v678.86648888a29.72103111 29.72103111 0 0 1-29.71534223 29.72672z m-379.63093333-239.104h156.36024889a29.70965333 29.70965333 0 0 1 18.63566222 6.56497777l174.90261334 140.74197334V234.64049778L388.48967111 375.37564445a29.74492445 29.74492445 0 0 1-18.6368 6.56497777H213.49489778v260.11648z m669.65504-100.32696889H724.01578667a29.72672 29.72672 0 1 1 0-59.45344h159.13301333a29.72672 29.72672 0 1 1 0 59.45344zM862.24213333 857.09255111a29.5936 29.5936 0 0 1-14.68643555-3.90257778L709.30204445 774.42275555a29.72103111 29.72103111 0 1 1 29.4240711-51.6551111l138.25479112 78.76608a29.72103111 29.72103111 0 0 1-14.73763556 55.55768888zM724.03968 305.15086222a29.72103111 29.72103111 0 0 1-14.74446222-55.55086222l138.25479111-78.78314667a29.72672 29.72672 0 0 1 29.43544889 51.64828445l-138.25365333 78.78314667a29.59928889 29.59928889 0 0 1-14.69212445 3.90257777z" fill="#409eff" p-id="2523"></path></svg>