<?xml version="1.0" encoding="UTF-8"?>
<svg xmlns="http://www.w3.org/2000/svg" width="216.9" height="137.93" viewBox="0 0 216.9 137.93">
  <defs>
    <style>
      .cls-1 {
        fill: #e4a16c;
      }

      .cls-2 {
        isolation: isolate;
      }

      .cls-3, .cls-4 {
        fill: #d88951;
      }

      .cls-4 {
        mix-blend-mode: screen;
      }
    </style>
  </defs>
  <g class="cls-2">
    <g id="_图层_2" data-name="图层 2">
      <g id="_图层_1-2" data-name="图层 1">
        <g>
          <polygon class="cls-1" points="102.54 137.93 35.41 104.29 35.41 10.48 102.54 44.12 102.54 137.93"/>
          <polygon class="cls-3" points="102.54 137.93 178.05 110.47 178.05 16.66 102.54 44.12 102.54 137.93"/>
          <polygon class="cls-4" points="115.85 63.35 166.77 44.84 166.77 37.34 115.85 55.86 115.85 63.35"/>
          <polygon class="cls-4" points="117.29 105.78 145.96 95.35 145.96 59.73 117.29 70.15 117.29 105.78"/>
          <polygon class="cls-1" points="178.05 16.66 216.9 13.72 141.61 41.37 102.54 44.12 178.05 16.66"/>
          <polygon class="cls-3" points="67.34 33.83 0 0 35.41 10.48 102.54 44.12 67.34 33.83"/>
        </g>
      </g>
    </g>
  </g>
</svg>