<?xml version="1.0" encoding="UTF-8"?>
<svg id="_图层_2" data-name="图层 2" xmlns="http://www.w3.org/2000/svg" width="80" height="83.62" xmlns:xlink="http://www.w3.org/1999/xlink" viewBox="0 0 80 83.62">
  <defs>
    <style>
      .cls-1 {
        fill: url(#_未命名的渐变_4);
      }
    </style>
    <linearGradient id="_未命名的渐变_4" data-name="未命名的渐变 4" x1="1.92" y1=".63" x2="77.59" y2="76.29" gradientUnits="userSpaceOnUse">
      <stop offset="0" stop-color="#75f8d2"/>
      <stop offset=".5" stop-color="#6096db"/>
      <stop offset="1" stop-color="#2ae3fc"/>
    </linearGradient>
  </defs>
  <g id="_图层_1-2" data-name="图层 1">
    <path class="cls-1" d="M39.8,83.62c-1.56-.04-3.07-.53-4.36-1.4-8.87-5.91-19.72-8.06-30.17-5.97-2.35,.51-4.67-.99-5.18-3.35-.07-.33-.1-.67-.1-1.01V4.36C0,2.02,1.85,.09,4.19,0h12.29c3.7,0,7.39,.44,10.99,1.31,2.32,.65,3.68,3.06,3.03,5.38-.65,2.32-3.06,3.68-5.38,3.03h0c-3.18-.75-6.45-1.09-9.72-1h-4.84c-1.11,0-2,.9-2,2V61.49c0,2.9,2.37,5.23,5.27,5.28,8.17,.14,16.18,2.33,23.3,6.39,1.67,.95,3.71,.95,5.38,0,7.12-4.06,15.13-6.25,23.3-6.39,2.9-.05,5.27-2.38,5.27-5.28V13.98c0-2.96-2.44-5.35-5.41-5.28-6.53,.16-12.94,1.92-18.66,5.13-1.63,.92-2.61,2.68-2.61,4.55V57.72c0,3.01-3.05,5.31-6.23,3.97-1.55-.66-2.48-2.27-2.48-3.96h0V13.38c-.01-1.36,.62-2.66,1.7-3.49C48.59,1.51,62.87-1.67,76.6,1.18c2.03,.46,3.45,2.28,3.4,4.36V71.98c.05,2.41-1.85,4.4-4.26,4.46-.34,0-.68-.02-1.01-.1-10.45-2.09-21.3,.06-30.17,5.97-1.41,.91-3.07,1.37-4.75,1.31Z"/>
  </g>
</svg>