<svg xmlns="http://www.w3.org/2000/svg" width="180px" height="180px" viewBox="0 0 714.88 666.96">
  <defs>
    <style>
      .cls-1 {
        clip-path: url(#clippath);
      }
      .cls-2 {
        fill: none;
      }
      .cls-3 {
        fill: url(#_未命名的渐变_7);
      }
    </style>
    <clipPath id="clippath">
      <rect class="cls-2" width="714.88" height="666.96" />
    </clipPath>
    <linearGradient id="_未命名的渐变_7" data-name="未命名的渐变 7" x1="51.32" y1="32.18" x2="654.51" y2="635.37" gradientUnits="userSpaceOnUse">
      <stop offset="0" stop-color="#5e8ecb" />
      <stop offset=".28" stop-color="#5e8ecb" />
      <stop offset="1" stop-color="#5ec3dc" />
    </linearGradient>
  </defs>
  <g id="_图层_1-2" data-name="图层 1">
    <g class="cls-1">
      <path
        class="cls-3"
        d="M637.96,417.68c-15.36,0-25.6,10.24-25.6,25.6v156.16c0,7.68-7.68,15.36-15.36,15.36H115.72c-7.68,0-15.36-7.68-15.36-15.36v-156.16c0-15.36-10.24-25.6-25.6-25.6s-25.6,10.24-25.6,25.6v156.16c0,35.84,30.72,66.56,66.56,66.56h481.28c35.84,0,66.56-30.72,66.56-66.56v-156.16c0-15.36-10.24-25.6-25.6-25.6h0Zm74.24-240.64L627.72,13.2c-5.12-7.68-12.8-12.8-23.04-12.8H92.68c-10.24,0-20.48,7.68-23.04,17.92L3.08,184.72c-5.12,5.12-2.56,17.92-2.56,20.48v64c0,64,53.76,117.76,117.76,117.76h33.28c38.4,0,69.12-12.8,89.6-35.84,20.48,23.04,56.32,35.84,99.84,35.84h33.28c43.52,0,79.36-12.8,99.84-35.84,20.48,20.48,51.2,33.28,89.6,33.28h33.28c64,0,117.76-53.76,117.76-117.76v-66.56c0-2.56,0-17.92-2.56-23.04h0ZM110.6,51.6h478.72l53.76,102.4H67.08L110.6,51.6Zm486.4,281.6h-33.28c-15.36,0-66.56-2.56-66.56-51.2,0-15.36-10.24-25.6-25.6-25.6s-25.6,10.24-25.6,25.6v10.24c0,40.96-61.44,43.52-74.24,43.52h-33.28c-12.8,0-74.24-2.56-74.24-43.52v-7.68c0-15.36-10.24-25.6-25.6-25.6s-25.6,10.24-25.6,25.6c0,38.4-33.28,51.2-66.56,51.2h-30.72c-35.84,0-66.56-30.72-66.56-66.56v-64H663.56v61.44c0,35.84-28.16,66.56-66.56,66.56h0Z"
      />
    </g>
  </g>
</svg>
