<svg xmlns="http://www.w3.org/2000/svg" width="32" height="32" viewBox="0 0 16 16">
  <path
    fill="currentColor"
    fill-rule="evenodd"
    d="M3.5 2.5v11h9v-11zM3 1a1 1 0 0 0-1 1v12a1 1 0 0 0 1 1h10a1 1 0 0 0 1-1V2a1 1 0 0 0-1-1zm5 10a.75.75 0 0 1 .75-.75h1.75a.75.75 0 0 1 0 1.5H8.75A.75.75 0 0 1 8 11m-2 1a1 1 0 1 0 0-2a1 1 0 0 0 0 2m2-4a.75.75 0 0 1 .75-.75h1.75a.75.75 0 0 1 0 1.5H8.75A.75.75 0 0 1 8 8M6 9a1 1 0 1 0 0-2a1 1 0 0 0 0 2m2-4a.75.75 0 0 1 .75-.75h1.75a.75.75 0 0 1 0 1.5H8.75A.75.75 0 0 1 8 5M6 6a1 1 0 1 0 0-2a1 1 0 0 0 0 2"
    clip-rule="evenodd"
  ></path>
</svg>
